<?xml version="1.0" encoding="UTF-8" standalone="no"?>
<!DOCTYPE svg PUBLIC "-//W3C//DTD SVG 1.1//EN" "http://www.w3.org/Graphics/SVG/1.1/DTD/svg11.dtd">
<svg width="100%" height="100%" viewBox="0 0 378 283" version="1.1" xmlns="http://www.w3.org/2000/svg" xmlns:xlink="http://www.w3.org/1999/xlink" xml:space="preserve" xmlns:serif="http://www.serif.com/" style="fill-rule:evenodd;clip-rule:evenodd;stroke-linejoin:round;stroke-miterlimit:2;">
    <g transform="matrix(1,0,0,1,-1460.46,-767.201)">
        <g transform="matrix(0.169489,0,0,0.169489,1236.44,937.189)">
            <g transform="matrix(1,0,0,1,-4250,-1668.75)">
                <g transform="matrix(4.16667,0,0,4.16667,0,0)">
                    <path d="M1354.5,267.5C1353.53,265.052 1353.19,262.385 1353.5,259.5C1355.79,259.595 1357.79,260.262 1359.5,261.5C1361.91,262.911 1363.58,264.911 1364.5,267.5C1366.22,269.223 1367.55,271.223 1368.5,273.5C1370.6,276.797 1371.93,280.463 1372.5,284.5C1374.34,286.849 1375.67,289.515 1376.5,292.5C1379.07,297.311 1381.4,302.311 1383.5,307.5C1384.91,307.973 1385.57,308.973 1385.5,310.5C1387.26,311.262 1388.26,312.596 1388.5,314.5C1389.91,314.973 1390.57,315.973 1390.5,317.5C1391.54,318.93 1392.2,320.597 1392.5,322.5C1393.91,322.973 1394.57,323.973 1394.5,325.5C1395.83,326.167 1396.83,327.167 1397.5,328.5C1401.96,331.619 1405.29,335.619 1407.5,340.5C1409.26,341.262 1410.26,342.596 1410.5,344.5C1414.86,347.67 1418.19,351.67 1420.5,356.5C1421.91,356.973 1422.57,357.973 1422.5,359.5C1423.49,359.328 1424.16,359.662 1424.5,360.5C1426.75,361.124 1428.42,362.457 1429.5,364.5C1433.54,367.512 1437.54,370.512 1441.5,373.5C1443.82,374.806 1446.15,376.139 1448.5,377.5C1449.73,376.66 1450.73,375.66 1451.5,374.5C1452.33,371.341 1453.33,368.341 1454.5,365.5C1457.93,353.89 1460.59,342.224 1462.5,330.5C1462.57,327.572 1463.23,324.905 1464.5,322.5C1466.48,310.315 1468.81,298.315 1471.5,286.5C1472.33,273.181 1473,259.848 1473.5,246.5C1472.88,246.083 1472.54,245.416 1472.5,244.5C1473.03,240.669 1473.69,237.002 1474.5,233.5L1474.5,230.5C1474.82,222.826 1475.32,215.159 1476,207.5C1476.88,204.986 1478.38,202.986 1480.5,201.5C1480.86,199.629 1481.86,198.129 1483.5,197C1486.77,196.424 1489.77,196.924 1492.5,198.5C1495.61,198.351 1498.61,198.851 1501.5,200C1502.82,200.816 1503.49,201.983 1503.5,203.5C1504.67,204.514 1505.34,205.847 1505.5,207.5L1505.5,208.5C1507.11,223.379 1508.11,238.379 1508.5,253.5C1509.44,257.418 1510.11,261.418 1510.5,265.5C1511.9,269.591 1512.56,273.924 1512.5,278.5L1518.5,295.5C1522.22,302.654 1524.55,310.32 1525.5,318.5C1526.45,319.919 1526.78,321.585 1526.5,323.5C1527.74,325.214 1528.41,327.214 1528.5,329.5C1530.73,332.836 1532.4,336.503 1533.5,340.5C1535.77,342.612 1537.1,345.279 1537.5,348.5L1537.5,349.5C1539.35,353.039 1541.02,356.706 1542.5,360.5C1543.91,360.973 1544.57,361.973 1544.5,363.5C1545.9,366.699 1546.9,370.032 1547.5,373.5C1549.01,376.678 1550.34,380.011 1551.5,383.5L1551.5,384.5C1554.45,386.728 1556.12,389.728 1556.5,393.5C1557.92,395.515 1558.59,397.848 1558.5,400.5C1561.12,402.033 1563.78,403.366 1566.5,404.5C1572.32,405.655 1577.99,406.988 1583.5,408.5C1589.65,408.202 1595.81,407.868 1602,407.5C1605.87,408.888 1609.83,409.601 1613.91,409.639C1615.11,409.598 1616.31,409.552 1617.5,409.5C1622.22,408.46 1626.89,407.794 1631.5,407.5C1630.59,400.334 1629.59,393.168 1628.5,386C1628.92,380.311 1628.92,374.477 1628.5,368.5C1626.76,363.648 1626.43,358.648 1627.5,353.5C1628.35,346.986 1628.69,340.653 1628.5,334.5C1627.83,331.351 1627.5,328.018 1627.5,324.5C1627.71,312.275 1628.71,300.275 1630.5,288.5C1630.21,286.265 1630.54,284.265 1631.5,282.5C1634.94,272.278 1637.61,261.945 1639.5,251.5L1639.5,249.5C1639.41,246.848 1640.08,244.515 1641.5,242.5C1641.57,239.572 1642.23,236.905 1643.5,234.5C1643.46,231.911 1644.46,229.911 1646.5,228.5C1646.93,224.756 1648.59,221.756 1651.5,219.5C1652.96,217.537 1654.63,215.704 1656.5,214C1660.05,213.226 1663.38,211.893 1666.5,210C1673.45,209.441 1680.12,210.274 1686.5,212.5C1687.91,212.973 1688.57,213.973 1688.5,215.5C1690.35,218.54 1691.68,221.873 1692.5,225.5C1693.39,226.261 1694.06,227.261 1694.5,228.5C1693.27,231.59 1692.27,234.757 1691.5,238C1692.41,240.895 1693.41,243.728 1694.5,246.5C1696.16,248.493 1697.33,250.826 1698,253.5C1698.87,260.246 1699.04,266.913 1698.5,273.5C1698.93,286.431 1696.93,298.931 1692.5,311C1692.77,312.533 1693.11,314.033 1693.5,315.5C1694.23,316.708 1694.57,318.041 1694.5,319.5C1695.63,321.628 1695.8,323.961 1695,326.5C1694.62,327.942 1693.79,328.942 1692.5,329.5C1692.78,331.415 1692.45,333.081 1691.5,334.5C1690.39,342.627 1689.39,350.627 1688.5,358.5C1688.61,359.117 1688.94,359.617 1689.5,360C1688.11,363.039 1687.11,366.206 1686.5,369.5C1684.65,375.901 1682.98,382.234 1681.5,388.5C1680.87,392.702 1679.87,396.702 1678.5,400.5L1678.5,402.5C1678.22,405.272 1678.89,407.772 1680.5,410C1684.68,410.185 1688.68,411.019 1692.5,412.5L1693.5,412.5C1694.1,411.861 1694.93,411.528 1696,411.5C1702.81,412.605 1709.65,413.105 1716.5,413C1717.69,412.302 1718.69,411.469 1719.5,410.5C1719.67,406.327 1721,402.66 1723.5,399.5C1726.41,390.104 1732.24,383.437 1741,379.5C1745.81,380.193 1750.64,380.693 1755.5,381C1760.25,383.005 1763.25,386.505 1764.5,391.5C1768.2,394.014 1770.86,397.347 1772.5,401.5C1773.34,401.842 1773.67,402.508 1773.5,403.5C1774.91,403.973 1775.57,404.973 1775.5,406.5L1775.5,407.5C1776.34,407.842 1776.67,408.508 1776.5,409.5C1777.67,410.514 1778.34,411.847 1778.5,413.5C1785.85,414.182 1793.18,413.682 1800.5,412C1810.25,410.65 1819.25,412.483 1827.5,417.5C1828.55,417.351 1829.55,417.517 1830.5,418C1832.35,420.018 1834.35,421.851 1836.5,423.5C1837.29,423.069 1838.13,422.735 1839,422.5C1842.06,423.611 1844.89,425.111 1847.5,427C1849.06,429.971 1850.73,432.804 1852.5,435.5C1854.97,437.884 1856.3,440.884 1856.5,444.5C1856.2,450.687 1854.54,456.354 1851.5,461.5C1850.28,464.866 1849.28,468.199 1848.5,471.5C1847.92,474.331 1846.59,476.664 1844.5,478.5C1844.59,479.496 1844.25,480.329 1843.5,481C1841.57,481.251 1839.73,481.751 1838,482.5C1837.67,485.167 1837.33,487.833 1837,490.5C1833.64,493.384 1831.14,496.884 1829.5,501C1816.72,506.297 1803.38,508.464 1789.5,507.5C1788.4,508.558 1787.07,509.392 1785.5,510C1776.5,510.667 1767.5,510.667 1758.5,510C1754.57,509.276 1750.91,508.109 1747.5,506.5C1745.06,506.114 1743.06,504.947 1741.5,503C1738.65,501.57 1735.65,500.737 1732.5,500.5C1720.98,507.757 1708.65,509.757 1695.5,506.5C1691.67,506.248 1688.34,504.915 1685.5,502.5C1681.72,502.111 1678.72,500.444 1676.5,497.5C1670.58,492.762 1664.75,487.762 1659,482.5C1656.96,479.757 1655.46,476.757 1654.5,473.5C1652.6,472.489 1650.6,472.322 1648.5,473C1645.25,477.647 1641.92,482.147 1638.5,486.5C1638.26,488.404 1637.26,489.738 1635.5,490.5C1628.03,497.316 1619.2,501.316 1609,502.5C1603.06,501.89 1597.23,500.723 1591.5,499C1589.76,497.483 1588.09,495.983 1586.5,494.5C1580.07,492.725 1575.07,489.058 1571.5,483.5C1567.83,483.167 1565.83,481.167 1565.5,477.5L1565.5,476.5C1562.74,475.407 1561.07,473.407 1560.5,470.5C1558.6,467.021 1556.93,463.354 1555.5,459.5C1552.47,454.436 1549.81,449.103 1547.5,443.5C1544.3,438.747 1542.3,433.414 1541.5,427.5C1540.2,425.858 1538.86,424.191 1537.5,422.5C1525.51,421.667 1513.51,420.834 1501.5,420C1497.69,418.673 1493.85,417.506 1490,416.5C1489.67,416.833 1489.33,417.167 1489,417.5C1484.01,416.824 1479.18,415.824 1474.5,414.5C1472.03,414.767 1469.7,415.434 1467.5,416.5C1467.17,417.167 1466.83,417.833 1466.5,418.5C1466.2,421.373 1465.53,424.039 1464.5,426.5C1464.58,429.781 1463.91,432.781 1462.5,435.5C1461.79,439.933 1459.79,443.6 1456.5,446.5C1455.27,451.883 1453.27,456.883 1450.5,461.5C1450.01,464.01 1449.01,466.344 1447.5,468.5C1443.77,472.227 1440.43,476.227 1437.5,480.5C1436.95,482.59 1436.14,484.504 1435.05,486.241C1433.44,490.963 1430.14,496.96 1425.6,502.957C1418.81,511.932 1411.26,518.248 1406.66,519.241C1404.84,520.015 1402.84,520.443 1400.73,520.443C1392.54,520.443 1385.89,513.959 1385.89,505.972C1385.89,502.349 1387.26,499.035 1389.52,496.495C1389.51,496.497 1389.51,496.498 1389.5,496.5C1391.83,493.5 1394.5,490.833 1397.5,488.5C1398.17,488.167 1398.83,487.833 1399.5,487.5C1400.68,483.979 1402.68,480.979 1405.5,478.5L1405.5,476.5C1413.54,465.473 1421.37,454.14 1429,442.5C1431.49,434.85 1434.99,427.85 1439.5,421.5C1440.47,415.528 1440.64,409.528 1440,403.5C1438.99,400.798 1437.49,398.465 1435.5,396.5C1428.77,390.424 1421.77,384.757 1414.5,379.5C1410.93,377.443 1407.77,374.777 1405,371.5C1396.99,362.162 1390.65,351.828 1386,340.5C1382.42,336.347 1379.09,332.014 1376,327.5C1369.76,309.537 1362.76,291.87 1355,274.5C1354.5,272.19 1354.34,269.857 1354.5,267.5ZM1498.5,320.5C1497.27,319.063 1496.27,317.396 1495.5,315.5C1494.35,314.269 1493.18,314.269 1492,315.5C1490.16,325.901 1488.99,336.234 1488.5,346.5C1488.86,350.077 1487.86,353.077 1485.5,355.5C1485.16,359.868 1483.5,363.535 1480.5,366.5L1480.5,368.5C1480.02,374.181 1479.36,379.848 1478.5,385.5C1478.33,387.693 1478.99,389.527 1480.5,391C1487.42,392.559 1494.08,394.725 1500.5,397.5C1502.19,397.274 1503.86,396.941 1505.5,396.5C1512.76,397.938 1520.1,398.605 1527.5,398.5L1527.5,392.5C1526.6,391.791 1526.26,390.791 1526.5,389.5C1522.18,383.862 1519.18,377.529 1517.5,370.5C1515.79,369.365 1515.12,367.698 1515.5,365.5C1513.99,363.819 1512.99,361.819 1512.5,359.5C1511.27,357.703 1510.6,355.703 1510.5,353.5C1508.1,350.567 1506.26,347.234 1505,343.5C1502.93,336.452 1500.76,329.452 1498.5,322.5L1498.5,320.5ZM1669.5,431.5C1669.67,432.492 1669.34,433.158 1668.5,433.5C1668.15,438.031 1668.82,442.364 1670.5,446.5C1672.1,447.287 1672.77,448.62 1672.5,450.5C1673.93,451.78 1674.6,453.447 1674.5,455.5C1676.38,457.926 1677.71,460.592 1678.5,463.5C1679.91,463.973 1680.57,464.973 1680.5,466.5C1686.65,471.745 1693.32,476.245 1700.5,480C1702.81,480.497 1705.14,480.663 1707.5,480.5L1708.5,480.5C1711.48,479.663 1714.32,478.329 1717,476.5C1717.67,474.833 1717.67,473.167 1717,471.5C1715.83,467.822 1714.66,464.156 1713.5,460.5C1713.01,458.194 1712.67,455.861 1712.5,453.5C1711.67,448.684 1711.17,443.684 1711,438.5C1706.02,437.194 1701.19,435.528 1696.5,433.5C1694.59,433.784 1692.92,433.451 1691.5,432.5C1686.68,432.008 1682.01,431.341 1677.5,430.5C1674.76,430.401 1672.1,430.735 1669.5,431.5ZM1654.5,370.5C1655.31,371.429 1656.15,372.429 1657,373.5C1659.21,370.021 1660.71,366.354 1661.5,362.5C1663.96,349.404 1666.29,336.404 1668.5,323.5C1668.31,319.434 1668.64,315.434 1669.5,311.5C1670.14,296.946 1671.47,282.612 1673.5,268.5C1673.74,262.773 1673.41,257.106 1672.5,251.5C1670.62,249.602 1668.62,247.769 1666.5,246C1665.21,245.51 1663.87,245.343 1662.5,245.5C1661.83,245.5 1661.5,245.833 1661.5,246.5C1659.46,249.371 1657.63,252.371 1656,255.5C1655.5,259.152 1655.33,262.818 1655.5,266.5C1656.95,269.718 1657.62,273.218 1657.5,277C1656.85,284.245 1655.68,291.411 1654,298.5C1653.5,310.829 1653.33,323.162 1653.5,335.5C1653.28,347.193 1653.61,358.86 1654.5,370.5ZM1748.5,446.5C1749.46,439.31 1746.46,436.81 1739.5,439C1738.54,440.707 1737.87,442.541 1737.5,444.5C1738.28,448.159 1738.94,451.825 1739.5,455.5C1740.87,455.657 1742.21,455.49 1743.5,455C1745.08,451.989 1746.75,449.156 1748.5,446.5ZM1805.5,484.5C1809.07,482.713 1812.74,480.879 1816.5,479C1819.87,475.708 1822.87,472.208 1825.5,468.5C1826.99,464.002 1828.66,459.668 1830.5,455.5C1830.81,451.3 1830.14,447.3 1828.5,443.5C1824.7,440.337 1820.7,437.67 1816.5,435.5L1811.5,435.5C1807.63,436.224 1803.63,436.891 1799.5,437.5C1791.55,436.928 1783.55,436.928 1775.5,437.5C1774.99,440.983 1774.32,444.316 1773.5,447.5C1773.87,451.647 1772.87,455.314 1770.5,458.5C1769.05,466.074 1765.55,472.408 1760,477.5C1759.26,479.441 1759.42,481.274 1760.5,483C1765.93,484.194 1771.43,485.027 1777,485.5C1786.5,485.552 1796,485.218 1805.5,484.5ZM1586.5,429.5L1585.5,429.5C1577.12,427.545 1574.45,430.545 1577.5,438.5C1579.28,441.902 1580.61,445.569 1581.5,449.5C1584.97,451.637 1587.31,454.637 1588.5,458.5C1590.17,459.5 1591.5,460.833 1592.5,462.5C1594.59,463.585 1595.92,465.251 1596.5,467.5C1601.02,471.094 1606.02,472.428 1611.5,471.5C1611.41,470.504 1611.75,469.671 1612.5,469C1617.41,467.292 1621.58,464.458 1625,460.5C1627.52,456.767 1630.02,453.101 1632.5,449.5C1634.25,445.426 1635.92,441.259 1637.5,437C1633.83,432.825 1629.16,430.658 1623.5,430.5C1611,429.635 1598.67,429.301 1586.5,429.5Z"/>
                </g>
            </g>
        </g>
    </g>
</svg>
