<?xml version="1.0" encoding="UTF-8" standalone="no"?><!DOCTYPE svg PUBLIC "-//W3C//DTD SVG 1.1//EN" "http://www.w3.org/Graphics/SVG/1.1/DTD/svg11.dtd"><svg width="100%" height="100%" viewBox="0 0 426 426" version="1.1" xmlns="http://www.w3.org/2000/svg" xmlns:xlink="http://www.w3.org/1999/xlink" xml:space="preserve" xmlns:serif="http://www.serif.com/" style="fill-rule:evenodd;clip-rule:evenodd;stroke-linejoin:round;stroke-miterlimit:2;"><path d="M425.548,106.387l-0,212.774c-0,58.716 -47.671,106.387 -106.387,106.387l-212.774,-0c-58.717,-0 -106.387,-47.671 -106.387,-106.387l0,-212.774c0,-58.717 47.67,-106.387 106.387,-106.387l212.774,0c58.716,0 106.387,47.67 106.387,106.387Z" style="fill:#fff;"/><g><g><g><path d="M35.909,148.434c-0.685,-1.728 -0.925,-3.612 -0.706,-5.649c1.617,0.067 3.029,0.538 4.237,1.412c1.702,0.997 2.881,2.409 3.531,4.237c1.215,1.217 2.154,2.63 2.825,4.238c1.483,2.328 2.422,4.917 2.825,7.768c1.299,1.659 2.238,3.542 2.824,5.65c1.815,3.397 3.461,6.928 4.944,10.593c0.996,0.334 1.462,1.04 1.412,2.118c1.243,0.538 1.949,1.48 2.119,2.825c0.996,0.334 1.462,1.04 1.412,2.119c0.735,1.01 1.201,2.187 1.413,3.531c0.995,0.334 1.461,1.04 1.412,2.118c0.939,0.471 1.645,1.178 2.119,2.119c3.149,2.203 5.501,5.027 7.062,8.474c1.243,0.539 1.949,1.481 2.118,2.825c3.079,2.239 5.431,5.064 7.062,8.475c0.996,0.334 1.462,1.04 1.413,2.118c0.699,-0.121 1.172,0.115 1.412,0.707c1.589,0.44 2.768,1.382 3.531,2.824c2.853,2.127 5.678,4.246 8.475,6.356c1.638,0.922 3.284,1.864 4.943,2.825c0.869,-0.593 1.575,-1.299 2.119,-2.119c0.586,-2.231 1.292,-4.349 2.118,-6.355c2.423,-8.199 4.301,-16.438 5.65,-24.718c0.049,-2.067 0.515,-3.951 1.412,-5.649c1.399,-8.605 3.044,-17.08 4.944,-25.424c0.586,-9.406 1.059,-18.821 1.412,-28.248c-0.438,-0.294 -0.678,-0.765 -0.706,-1.412c0.374,-2.706 0.84,-5.295 1.412,-7.768l0,-2.119c0.226,-5.42 0.579,-10.834 1.06,-16.243c0.621,-1.775 1.68,-3.188 3.178,-4.237c0.254,-1.321 0.96,-2.381 2.118,-3.178c2.31,-0.407 4.428,-0.054 6.356,1.059c2.196,-0.105 4.315,0.248 6.356,1.06c0.932,0.576 1.405,1.4 1.412,2.471c0.827,0.716 1.3,1.658 1.413,2.825l-0,0.706c1.137,10.508 1.843,21.101 2.118,31.78c0.664,2.767 1.137,5.591 1.413,8.474c0.988,2.889 1.455,5.949 1.412,9.181l4.237,12.005c2.628,5.052 4.273,10.466 4.944,16.243c0.671,1.002 0.904,2.179 0.706,3.531c0.876,1.21 1.349,2.623 1.412,4.237c1.575,2.356 2.755,4.946 3.531,7.768c1.604,1.492 2.543,3.375 2.825,5.65l0,0.706c1.307,2.5 2.486,5.089 3.531,7.769c0.996,0.334 1.462,1.04 1.413,2.118c0.988,2.259 1.695,4.613 2.118,7.062c1.067,2.245 2.006,4.598 2.825,7.062l0,0.706c2.083,1.574 3.263,3.692 3.531,6.356c1.003,1.423 1.476,3.071 1.413,4.944c1.85,1.082 3.728,2.024 5.649,2.825c4.11,0.815 8.115,1.757 12.006,2.824c4.343,-0.21 8.693,-0.446 13.065,-0.706c2.733,0.98 5.529,1.484 8.41,1.511c0.848,-0.029 1.695,-0.062 2.536,-0.098c3.333,-0.735 6.631,-1.205 9.887,-1.413c-0.643,-5.061 -1.349,-10.121 -2.119,-15.183c0.297,-4.018 0.297,-8.138 -0,-12.359c-1.229,-3.426 -1.462,-6.957 -0.706,-10.593c0.6,-4.6 0.84,-9.073 0.706,-13.418c-0.473,-2.224 -0.706,-4.577 -0.706,-7.062c0.148,-8.633 0.854,-17.108 2.118,-25.423c-0.204,-1.579 0.029,-2.991 0.707,-4.237c2.429,-7.219 4.314,-14.516 5.649,-21.893l0,-1.412c-0.063,-1.873 0.41,-3.521 1.413,-4.944c0.049,-2.067 0.515,-3.951 1.412,-5.649c-0.028,-1.829 0.678,-3.241 2.119,-4.238c0.303,-2.644 1.476,-4.762 3.531,-6.355c1.031,-1.387 2.21,-2.681 3.531,-3.884c2.507,-0.547 4.858,-1.488 7.062,-2.825c4.908,-0.395 9.618,0.193 14.124,1.765c0.996,0.334 1.462,1.04 1.412,2.119c1.307,2.147 2.246,4.5 2.825,7.062c0.629,0.537 1.102,1.244 1.412,2.118c-0.868,2.183 -1.574,4.419 -2.118,6.709c0.642,2.045 1.349,4.046 2.118,6.003c1.173,1.408 1.999,3.055 2.472,4.944c0.615,4.764 0.735,9.472 0.353,14.124c0.304,9.132 -1.108,17.959 -4.237,26.482c0.191,1.083 0.431,2.142 0.706,3.178c0.516,0.853 0.756,1.795 0.706,2.825c0.798,1.503 0.919,3.151 0.354,4.944c-0.269,1.018 -0.855,1.724 -1.766,2.118c0.198,1.353 -0.035,2.529 -0.706,3.531c-0.784,5.74 -1.49,11.389 -2.119,16.949c0.078,0.436 0.311,0.789 0.706,1.059c-0.981,2.147 -1.687,4.383 -2.118,6.709c-1.307,4.521 -2.486,8.993 -3.531,13.418c-0.445,2.968 -1.151,5.793 -2.119,8.475l0,1.412c-0.198,1.958 0.276,3.723 1.413,5.297c2.952,0.13 5.776,0.719 8.474,1.765l0.706,0c0.424,-0.451 1.01,-0.686 1.766,-0.706c4.809,0.78 9.639,1.133 14.477,1.059c0.84,-0.493 1.547,-1.081 2.119,-1.765c0.12,-2.947 1.059,-5.537 2.824,-7.768c2.055,-6.636 6.173,-11.344 12.359,-14.125c3.397,0.49 6.808,0.843 10.24,1.06c3.354,1.416 5.473,3.887 6.356,7.415c2.613,1.775 4.491,4.129 5.649,7.062c0.594,0.241 0.827,0.712 0.707,1.412c0.995,0.334 1.461,1.041 1.412,2.119l0,0.706c0.593,0.242 0.826,0.712 0.706,1.413c0.826,0.716 1.3,1.657 1.413,2.824c5.19,0.482 10.367,0.129 15.536,-1.059c6.886,-0.953 13.241,0.341 19.068,3.884c0.741,-0.105 1.447,0.012 2.118,0.353c1.307,1.425 2.719,2.72 4.238,3.884c0.557,-0.304 1.151,-0.54 1.765,-0.706c2.161,0.785 4.16,1.844 6.003,3.178c1.101,2.098 2.281,4.099 3.531,6.003c1.744,1.683 2.683,3.802 2.825,6.356c-0.212,4.369 -1.385,8.371 -3.531,12.005c-0.862,2.377 -1.568,4.731 -2.119,7.062c-0.41,2 -1.349,3.647 -2.825,4.944c0.064,0.703 -0.176,1.291 -0.706,1.765c-1.363,0.177 -2.662,0.531 -3.884,1.059c-0.233,1.884 -0.473,3.767 -0.706,5.65c-2.373,2.037 -4.139,4.509 -5.297,7.415c-9.025,3.741 -18.446,5.271 -28.248,4.591c-0.777,0.747 -1.716,1.336 -2.825,1.765c-6.356,0.471 -12.712,0.471 -19.067,0c-2.776,-0.511 -5.361,-1.335 -7.769,-2.472c-1.723,-0.272 -3.135,-1.096 -4.237,-2.471c-2.013,-1.01 -4.131,-1.598 -6.356,-1.766c-8.135,5.125 -16.843,6.538 -26.129,4.237c-2.705,-0.178 -5.057,-1.119 -7.062,-2.824c-2.67,-0.275 -4.788,-1.452 -6.356,-3.531c-4.181,-3.346 -8.298,-6.877 -12.359,-10.594c-1.44,-1.937 -2.5,-4.055 -3.178,-6.355c-1.342,-0.714 -2.754,-0.832 -4.237,-0.353c-2.295,3.281 -4.647,6.459 -7.062,9.533c-0.17,1.345 -0.876,2.287 -2.119,2.825c-5.275,4.814 -11.511,7.638 -18.714,8.475c-4.195,-0.431 -8.312,-1.255 -12.359,-2.472c-1.228,-1.071 -2.408,-2.131 -3.531,-3.178c-4.541,-1.254 -8.072,-3.843 -10.593,-7.768c-2.592,-0.235 -4.004,-1.648 -4.237,-4.238l0,-0.706c-1.949,-0.772 -3.128,-2.184 -3.531,-4.237c-1.342,-2.457 -2.521,-5.046 -3.531,-7.768c-2.14,-3.576 -4.018,-7.343 -5.65,-11.299c-2.259,-3.357 -3.672,-7.123 -4.237,-11.3c-0.918,-1.159 -1.864,-2.337 -2.825,-3.531c-8.467,-0.588 -16.942,-1.176 -25.423,-1.765c-2.691,-0.937 -5.403,-1.762 -8.121,-2.472c-0.233,0.235 -0.474,0.471 -0.707,0.706c-3.524,-0.477 -6.935,-1.183 -10.24,-2.118c-1.744,0.188 -3.389,0.659 -4.943,1.412c-0.233,0.471 -0.473,0.941 -0.706,1.412c-0.212,2.029 -0.685,3.912 -1.413,5.65c0.057,2.317 -0.416,4.436 -1.412,6.356c-0.501,3.13 -1.914,5.72 -4.237,7.768c-0.869,3.802 -2.281,7.333 -4.238,10.593c-0.346,1.773 -1.052,3.421 -2.118,4.944c-2.634,2.632 -4.993,5.456 -7.062,8.474c-0.389,1.476 -0.961,2.828 -1.73,4.054c-1.137,3.335 -3.468,7.57 -6.674,11.805c-4.795,6.339 -10.127,10.799 -13.376,11.5c-1.285,0.547 -2.697,0.849 -4.187,0.849c-5.784,0 -10.48,-4.579 -10.48,-10.219c-0,-2.559 0.967,-4.899 2.563,-6.693c-0.007,0.001 -0.007,0.002 -0.014,0.003c1.645,-2.118 3.531,-4.002 5.65,-5.649c0.473,-0.235 0.939,-0.471 1.412,-0.706c0.833,-2.487 2.246,-4.606 4.237,-6.356l0,-1.413c5.678,-7.787 11.208,-15.79 16.596,-24.011c1.759,-5.402 4.23,-10.346 7.415,-14.83c0.685,-4.217 0.805,-8.455 0.353,-12.712c-0.713,-1.908 -1.772,-3.555 -3.178,-4.943c-4.752,-4.291 -9.696,-8.293 -14.83,-12.006c-2.521,-1.452 -4.753,-3.335 -6.709,-5.649c-5.657,-6.595 -10.134,-13.893 -13.418,-21.893c-2.528,-2.932 -4.88,-5.992 -7.062,-9.18c-4.406,-12.686 -9.35,-25.162 -14.83,-37.429c-0.353,-1.631 -0.466,-3.279 -0.353,-4.944Zm101.693,37.429c-0.868,-1.014 -1.575,-2.192 -2.118,-3.531c-0.812,-0.869 -1.639,-0.869 -2.472,0c-1.299,7.346 -2.126,14.643 -2.472,21.893c0.255,2.526 -0.452,4.644 -2.118,6.355c-0.24,3.085 -1.413,5.675 -3.531,7.769l-0,1.412c-0.339,4.012 -0.805,8.014 -1.413,12.006c-0.12,1.548 0.346,2.844 1.413,3.884c4.887,1.101 9.59,2.63 14.124,4.59c1.193,-0.16 2.373,-0.395 3.531,-0.706c5.127,1.015 10.31,1.486 15.536,1.412l0,-4.237c-0.635,-0.501 -0.875,-1.207 -0.706,-2.119c-3.051,-3.981 -5.169,-8.454 -6.356,-13.417c-1.207,-0.802 -1.681,-1.979 -1.412,-3.531c-1.067,-1.188 -1.773,-2.6 -2.119,-4.238c-0.868,-1.269 -1.342,-2.681 -1.412,-4.237c-1.695,-2.071 -2.995,-4.425 -3.884,-7.062c-1.462,-4.977 -2.995,-9.921 -4.591,-14.83l0,-1.413Zm120.761,78.389c0.12,0.701 -0.113,1.171 -0.706,1.412c-0.247,3.2 0.226,6.26 1.413,9.181c1.129,0.556 1.603,1.497 1.412,2.825c1.01,0.904 1.483,2.081 1.412,3.531c1.328,1.713 2.267,3.596 2.825,5.65c0.996,0.334 1.462,1.04 1.413,2.118c4.343,3.704 9.053,6.882 14.124,9.534c1.631,0.351 3.276,0.468 4.943,0.353l0.706,0c2.105,-0.591 4.11,-1.533 6.003,-2.825c0.473,-1.177 0.473,-2.354 0,-3.531c-0.826,-2.597 -1.652,-5.186 -2.472,-7.768c-0.346,-1.629 -0.586,-3.276 -0.706,-4.943c-0.586,-3.402 -0.939,-6.933 -1.059,-10.594c-3.517,-0.922 -6.928,-2.098 -10.24,-3.531c-1.349,0.201 -2.528,-0.034 -3.531,-0.706c-3.404,-0.347 -6.702,-0.818 -9.887,-1.412c-1.935,-0.07 -3.814,0.166 -5.65,0.706Zm-10.593,-43.078c0.572,0.656 1.165,1.362 1.766,2.118c1.56,-2.457 2.62,-5.046 3.178,-7.768c1.737,-9.249 3.382,-18.429 4.943,-27.542c-0.134,-2.871 0.099,-5.696 0.706,-8.475c0.452,-10.278 1.392,-20.4 2.825,-30.366c0.17,-4.045 -0.063,-8.047 -0.706,-12.006c-1.328,-1.34 -2.74,-2.635 -4.237,-3.884c-0.911,-0.346 -1.858,-0.464 -2.825,-0.353c-0.473,-0 -0.706,0.235 -0.706,0.706c-1.441,2.028 -2.733,4.146 -3.884,6.356c-0.354,2.579 -0.474,5.168 -0.354,7.768c1.024,2.273 1.498,4.745 1.413,7.415c-0.459,5.117 -1.285,10.178 -2.472,15.184c-0.353,8.707 -0.473,17.416 -0.353,26.129c-0.155,8.258 0.078,16.497 0.706,24.718Zm66.384,53.671c0.677,-5.077 -1.441,-6.843 -6.356,-5.296c-0.678,1.205 -1.151,2.5 -1.413,3.884c0.551,2.584 1.017,5.173 1.413,7.768c0.967,0.111 1.913,-0.007 2.824,-0.353c1.116,-2.127 2.296,-4.127 3.532,-6.003Zm40.253,26.836c2.521,-1.262 5.113,-2.557 7.768,-3.884c2.38,-2.325 4.499,-4.797 6.356,-7.415c1.053,-3.177 2.232,-6.238 3.531,-9.181c0.219,-2.966 -0.254,-5.791 -1.412,-8.474c-2.684,-2.234 -5.509,-4.118 -8.475,-5.65l-3.531,-0c-2.733,0.511 -5.557,0.982 -8.474,1.412c-5.614,-0.404 -11.264,-0.404 -16.949,0c-0.36,2.46 -0.833,4.814 -1.412,7.062c0.261,2.929 -0.445,5.519 -2.119,7.769c-1.024,5.348 -3.496,9.821 -7.415,13.417c-0.523,1.371 -0.41,2.666 0.353,3.885c3.835,0.843 7.719,1.431 11.652,1.765c6.709,0.037 13.418,-0.199 20.127,-0.706Zm-154.659,-38.841l-0.706,-0c-5.918,-1.381 -7.803,0.738 -5.65,6.355c1.258,2.403 2.197,4.993 2.825,7.769c2.451,1.509 4.103,3.628 4.944,6.356c1.179,0.706 2.118,1.647 2.825,2.824c1.476,0.767 2.415,1.943 2.824,3.531c3.192,2.539 6.723,3.481 10.593,2.825c-0.063,-0.703 0.177,-1.291 0.707,-1.765c3.467,-1.206 6.412,-3.208 8.827,-6.003c1.78,-2.636 3.545,-5.225 5.297,-7.768c1.236,-2.877 2.415,-5.82 3.531,-8.828c-2.592,-2.948 -5.89,-4.479 -9.887,-4.59c-8.828,-0.611 -17.535,-0.847 -26.13,-0.706Z" style="fill:#1b1b1b;"/></g></g></g></svg>